<?xml version="1.0" encoding="UTF-8"?><svg id="Capa_2" xmlns="http://www.w3.org/2000/svg" viewBox="0 0 155.96 100.4"><defs><style>.cls-1{fill:#937769;}.cls-2,.cls-3{fill:#fff;}.cls-4{fill:#443834;}.cls-5{fill:#d3cac2;}.cls-3{fill-rule:evenodd;}.cls-6{fill:#70c6e8;}.cls-7{fill:#2b2120;}.cls-8{fill:#f8f7f6;}.cls-9{fill:#605555;}.cls-10{fill:#5b5959;}.cls-11{fill:#0f0d0d;}.cls-12{fill:#489fcb;}.cls-13{fill:#a78f81;}.cls-14{fill:#382e2a;}.cls-15{fill:#261e1b;}.cls-16{fill:#f3eee9;}.cls-17{fill:#137aa2;}</style></defs><g id="set"><g><path class="cls-5" d="M68.45,91.37c-1.56,.34-3.37-.19-4.68,.73-1.22,.86-1.4,2.74-.64,4.03,.76,1.29,2.22,2.03,3.69,2.31,2.47,.48,5.06-.16,7.27-1.36,2.21-1.2,4.09-2.92,5.85-4.73,4.16-4.27,7.83-9.22,9.45-14.96-4.88-2.07-9.78-4.15-14.91-5.49-5.13-1.35-10.53-1.95-15.75-1.03,.82,3.8,3.88,7.03,7.63,8.05,1.65,.45,3.4,.49,5.03,1.01,1.63,.51,3.23,1.68,3.54,3.36,.35,1.94-1.08,3.7-2.42,5.14-1.15,1.25-2.41,2.56-4.07,2.93Z"/><path class="cls-5" d="M24.35,91.38c-.66-7.07,.82-14.16,2.65-21.02,.38-1.42,.75-3.06-.08-4.28-.48-.72-1.28-1.14-2.05-1.53-4.79-2.45-9.58-4.91-14.38-7.36,3.43,5.04,5.11,11.1,5.71,17.17,.61,6.06,.2,12.18-.21,18.26-2.43-.05-4.59,2.44-4.19,4.84,1.98,1.04,4.2,1.61,6.43,1.67,2.12,.05,4.49-.53,5.6-2.34,.96-1.57,.68-3.57,.51-5.4Z"/><path class="cls-14" d="M155.86,44.78c-1.02-5.11-4.09-1.03-7.17,2.17-2.31,2.4-9.12,10.37-17.57,12.17-8.45,1.79-19.13-3.96-30.64-16.72-2.27-2.52-5.45-4.92-9.26-7.12,2.39,2.87,3.98,6.41,4.51,10.11,.43,2.97,.21,6.09,.79,8.98,5.76,4.08,15.85,14.35,34.72,11.77,18.92-2.59,25.63-16.25,24.61-21.35Z"/><path class="cls-16" d="M96.49,54.33s.03,.02,.04,.03c-.58-2.9-.37-6.02-.79-8.98-.53-3.7-2.12-7.24-4.51-10.11-15.51-8.97-41.49-14.57-59.19-10.51,.06-3.26,.03-4.71-.36-7.14-.38-2.43,5.97-13.73,4.21-14.17-2.91-.74-8.93,4.74-10.21,5.3-1.28,.56-9.32-.58-9.32-.58C16.37,8.17,12.37-.24,9.6,0c-2.77,.24-3.7,11.11-3.7,11.11,0,0-2.63,7.14-1.86,12.12,.77,4.98,1.23,12.39,.59,16.35-.64,3.96-.73,10.16,5.1,18.51,2.91,4.17,12.55,10.46,17.74,11.23,0,0,3.21,19.53,1.42,22.59-1.79,3.06-4.99,3.05-4.73,5.47,.26,2.43,2.28,3.02,3.99,3.02,4.34,0,6.34-1.21,7.49-3.26,.7-1.25,2.86-10.65,4.88-18.23,1.27-4.79,2.9-8.69,2.78-9.85,4.4,1.87,16.36,4.94,23.49,2.94,2.57-.72,4.1,8.82,28.34,8.04,3.13-.1,.79,12.44-.64,12.51-4.21,.21-6.06,3.37-3.42,5.46,1.88,1.48,5.93,1.82,8.66,.51,1.65-.79,4.2-10.5,4.33-15.7,.13-5.2,1.66-9.54,0-11.07s-11.53-8.93-7.58-17.42Z"/><path class="cls-2" d="M27.61,70.19c.02-4.03-1.1-8.06-3.22-11.49-1.39-2.25-3.22-4.3-4.01-6.83-.75-2.4-.46-5.02,.33-7.41,.79-2.39,2.07-4.58,3.33-6.75,1.02-1.75,2.04-3.51,3.07-5.26-4.2,1.38-8.83,1.42-13.05,.1-3.69-1.15-7.04-3.33-9.61-6.21,.5,4.6,.7,10.04,.18,13.24-.64,3.96-.73,10.16,5.1,18.51,2.91,4.17,12.55,10.46,17.74,11.23,0,0,.05,.31,.14,.87Z"/><path class="cls-13" d="M32.04,24.76c.06-2.87,.03-4.34-.24-6.3-.41-.19-.84-.33-1.23-.56-.81-.48-1.34-1.31-1.94-2.04-1.59-1.92-3.89-3.24-6.35-3.65-2.46-.41-5.06,.09-7.2,1.39-1.13,.69-2.17,1.61-3.45,1.97-2.25,.63-4.83-.62-6.93,.42-.08,.04-.14,.1-.21,.14-.47,2.25-.81,4.9-.46,7.12,.17,1.11,.33,2.35,.46,3.65,1.04,1.59,2.4,2.98,3.95,4.07,2.96,2.09,6.56,3.17,10.18,3.45,2.33,.18,4.76,.03,6.87-.99,1.87-.91,3.39-2.45,4.53-4.18,.93-1.41,2.11-4.49,2.02-4.47Z"/><path class="cls-14" d="M32,20.33c-.18-.31-.43-.61-.68-.86-1.18-1.17-2.17-3.12-3.71-3.7-2.41-.93-4.83,2.6-6.63,1.25-3.22-2.44-7.14-2.28-9.25-.61-1.06,.84-1.82,2.11-3.08,2.57-.73,.26-1.53,.22-2.28,.4-.75,.18-1.52,.74-1.53,1.51,0,.79,.75,1.33,1.34,1.85,2.54,2.24,2.96,6.02,4.85,8.84,.34,.5,.74,.96,1.17,1.38,2.05,.81,4.24,1.28,6.43,1.45,2.32,.18,4.72,.03,6.82-.97,.53-.47,2.44-.68,5.19-5.27,.58-.96,1.2-2.85,1.44-6.03,0-.65-.03-1.23-.07-1.8Z"/><path class="cls-8" d="M67.45,55.89c1.48-1.17,1.93-3.18,2.84-4.83,1.22-2.24,3.31-3.85,5.09-5.68,1.79-1.82,3.38-4.16,3.18-6.71-.17-2.2-1.7-4.12-3.56-5.31-1.86-1.2-4.03-1.8-6.16-2.38-7.56-2.06-15.2-4.14-23.03-4.37-1.34-.04-2.84,.03-3.77,.99-1.33,1.37-.77,3.61-1.05,5.5-.26,1.75-1.3,3.28-2.15,4.83-.85,1.56-1.54,3.37-1.04,5.08,.52,1.74,2.15,2.9,3.77,3.72,1.62,.82,3.39,1.48,4.65,2.79,.79,.82,1.32,1.84,2.03,2.73,1.56,1.95,3.9,3.17,6.31,3.81,2.42,.64,4.94,.76,7.43,.88,1.89,.09,3.96,.12,5.44-1.05Z"/><g><path class="cls-11" d="M17.13,8.28c-.47-.06-.76-.1-.76-.1C16.37,8.17,12.37-.24,9.6,0c-2.77,.24-3.7,11.11-3.7,11.11,0,0-.34,.93-.74,2.34,.65-.4,1.38-.69,2.12-.9,1.45-.41,2.97-.55,4.43-.97,2.06-.59,3.95-1.75,5.42-3.31Z"/><path class="cls-11" d="M25.15,8.86c2.23,1.44,3.98,3.6,4.89,6.09,.24,.66,.43,1.35,.81,1.94,.21,.33,.51,.61,.84,.81,0-.03,0-.05-.01-.08-.38-2.43,5.97-13.73,4.21-14.17-2.91-.74-8.93,4.74-10.21,5.3-.12,.05-.31,.09-.53,.11Z"/></g><g><path class="cls-9" d="M9.47,1.12c-.45,.2-.69,.68-.88,1.13-1.4,3.26-2.12,6.8-2.11,10.34,2.49-2.03,5.5-3.39,8.66-3.93-.5-2.57-1.81-4.99-3.69-6.81-.54-.52-1.29-1.02-1.98-.72Z"/><path class="cls-9" d="M28.89,10.29c1.87-2.35,5.85-5.49,6.72-5.93,.88-.44-3.36,9.29-4.16,11.53-.54-1.77-1.26-4.29-2.56-5.6Z"/></g><path class="cls-7" d="M28.44,23.14c-1.18-.86-2.83-.7-3.86-1.78-.75-.78-.96-1.95-1.14-3.14-.19-1.25-2.17-.75-2.1,.19,.06,.84,.11,1.77-.34,2.45-.26,.4-.66,.66-1.06,.88-1.29,.7-2.69,1.13-4.11,1.26-.97,.09-2.02,.07-2.82,.71-.74,.6-1.09,1.64-1.35,2.63-.31,1.19-.53,2.55,.01,3.62,.52,1.03,1.59,1.49,2.58,1.83,3.56,1.2,7.42,1.75,10.95,.46,1.14-.42,2.25-1.04,3.12-1.97,.88-.94,1.51-2.22,1.58-3.59,.08-1.37-.46-2.81-1.48-3.55Z"/><g><path class="cls-4" d="M26.49,26.42c-3.02-1-1.91-5.1-4.57-5.1-2.5,0-.88,3.8-3.73,4.8-.8,.28-2.72,1.31-2.77,2.31-.07,1.24,1.1,1.41,2.07,1.79,2.39,.94,4.31-.35,4.99-.29,1.39,.11,2.44,.68,3.1,.64,.66-.04,1.64-.73,1.98-1.4,.38-.73,.14-2.32-1.09-2.73Z"/><path class="cls-4" d="M24.18,30.72c-1.05-.36-2.29-.35-3.33,.04-.3,.11-.59,.26-.82,.45-.13,.11-.24,.26-.24,.41,0,.14,.11,.27,.25,.36,.14,.09,.31,.14,.47,.18,1.12,.28,2.32,.26,3.47,.06,.22-.04,.44-.08,.63-.17,.19-.09,.36-.24,.41-.42,.06-.2-.04-.42-.21-.58-.17-.16-.4-.26-.64-.34Z"/></g><g><path d="M26.53,30.09c-1.06,1.06-2.63-.09-3.8-.17-.02,0-.05,0-.07,0,0,0,0,0,0,0-.02-.46,.02-.91,0-1.37,0-.18-.34-.14-.34,.02,.02,.45-.02,.91,0,1.36-1.46,.11-2.9,1.19-4.26,.21-.09-.06-.4,.07-.26,.16,.59,.42,1.33,.5,2.03,.42,.47-.05,.93-.27,1.38-.41,.78-.24,1.59-.26,2.36,.01,1.02,.36,2.35,.7,3.23-.17,.14-.14-.19-.14-.27-.06Z"/><path d="M24.01,24.67c-1.1-.32-2.28-.32-3.38,0-.34,.1-.67,.23-.93,.46s-.44,.58-.38,.93c.05,.29,.24,.52,.43,.74,.7,.76,1.51,1.42,2.42,1.92,.13,.07,.26,.14,.41,.13,.14,0,.27-.09,.39-.17,.37-.25,2.38-1.67,2.18-3.03-.04-.26-.2-.5-.41-.65-.21-.16-.47-.25-.72-.32Z"/><path class="cls-10" d="M24.17,25.52c.06-.08,.06-.19,.02-.28-.04-.09-.12-.16-.2-.22-.5-.37-3.01-.51-3.41-.03-.1,.11-.17,.28-.09,.4,.07,.1,.21,.12,.33,.13,1.03,.02,2.06,.05,3.09,.07,.1,0,.2,0,.27-.08Z"/></g><path d="M25.47,21.58c.41,.24,.84,.48,1.3,.56,.58,.09,1.17-.09,1.7-.35,.48-.23,.94-.52,1.32-.9,.38-.39,.69-.88,.82-1.43,.07-.29,.09-.61-.04-.88-.18-.36-.57-.51-.92-.63-1-.33-2.04-.6-3.08-.49-.43,.05-.86,.17-1.19,.47-.28,.26-.44,.63-.59,1-.13,.32-.25,.65-.29,.99-.04,.35,0,.71,.19,1,.19,.3,.49,.48,.78,.65Z"/><path d="M14.31,17.71c-.51,.09-1.02,.11-1.54,.07-.22-.02-.46-.03-.63,.1-.14,.11-.19,.29-.22,.46-.18,1.12,.39,2.27,1.29,2.97,.89,.7,2.05,.99,3.18,1.02,.67,.02,1.34-.05,1.97-.27,.61-.21,1.21-.61,1.36-1.24,.14-.57-.15-1.15-.42-1.67-.31-.59-.64-1.2-1.2-1.55-.55-.35-1.24-.39-1.89-.3-.64,.09-1.27,.29-1.91,.4Z"/><g><path class="cls-12" d="M19.16,20.37s-.31-2.24-2.3-2.36c-1.99-.12-3.14,.81-3.14,1.18,0,1.21,.96,2.43,2.58,2.49,1.62,.06,2.3-.47,2.86-1.31Z"/><path class="cls-6" d="M14.06,19.53c0-.09,0-.19,.05-.26,.08-.1,.25-.09,.36,0,.11,.08,.17,.2,.23,.32,.59,1.07,1.87,1.71,3.08,1.56-.74,.2-1.55,.28-2.27,.03-.73-.25-1.36-.87-1.45-1.64Z"/><path class="cls-17" d="M18.46,19.3c.05,.1,.08,.2,.08,.31,0,.07-.02,.15-.1,.2-.1,.07-.27,.05-.4,0-.35-.13-.53-.41-.78-.63-.48-.43-1.27-.66-2.03-.58,.5-.16,1.08-.18,1.62-.11,.67,.09,1.36,.35,1.61,.81Z"/><path d="M17.58,19.7c0,.83-.32,1.51-.73,1.51s-.73-.68-.73-1.51,.33-1.51,.73-1.51,.73,.68,.73,1.51Z"/><path class="cls-2" d="M16.7,19.53c0,.29-.26,.53-.58,.53s-.58-.24-.58-.53,.26-.53,.58-.53,.58,.24,.58,.53Z"/></g><g><path class="cls-12" d="M24.93,20.02s.5-2.2,2.23-2.15c1.73,.05,2.63,1.08,2.59,1.45-.12,1.21-1.08,2.33-2.48,2.25-1.4-.08-1.94-.67-2.34-1.56Z"/><path class="cls-6" d="M25.3,19.65c0-.09,0-.19,.03-.26,.06-.1,.18-.09,.25,0,.07,.08,.12,.2,.16,.32,.42,1.07,1.32,1.71,2.17,1.56-.52,.2-1.09,.28-1.6,.03-.51-.25-.96-.87-1.02-1.64Z"/><path class="cls-17" d="M29.39,19.04c.05,.1,.08,.2,.08,.31,0,.07-.02,.15-.1,.2-.1,.07-.27,.05-.4,0-.35-.13-.53-.41-.78-.63-.48-.43-1.27-.66-2.03-.58,.5-.16,1.08-.18,1.62-.11,.67,.09,1.36,.35,1.61,.81Z"/><path d="M28.42,19.67c0,.83-.32,1.51-.73,1.51s-.73-.68-.73-1.51,.33-1.51,.73-1.51,.73,.68,.73,1.51Z"/><path class="cls-2" d="M27.49,19.32c0,.29-.26,.53-.58,.53s-.58-.24-.58-.53,.26-.53,.58-.53,.58,.24,.58,.53Z"/></g><g><path class="cls-3" d="M2.66,27.39c.31-.1,.67-.21,1.06-.31,.2-.05,.4-.11,.6-.16,.21-.05,.42-.1,.62-.15,.84-.2,1.68-.35,2.33-.45,.77-.12,1.46-.2,2.15-.26,.34-.04,.69-.05,1.05-.08,.36-.03,.72-.03,1.11-.04,.39-.02,.84,0,1.31,0,.23,0,.47,.02,.72,.03,.24,.02,.49,.02,.73,.05,.49,.04,.98,.08,1.45,.14,.23,.03,.46,.05,.68,.08,.22,.03,.43,.06,.62,.09,.3,.03,1.07,.19,1.37,.24,.16,.03,.1,.04-.13,.02-.12,0-.28-.03-.48-.05-.2-.03-.44-.06-.71-.09-.16-.02-.32-.04-.5-.06-.09-.01-.18-.02-.28-.03-.1,0-.19-.02-.29-.03-.4-.03-.85-.08-1.33-.11-.97-.08-1.91-.13-3.03-.11-1.47,.02-3.12,.2-4.45,.41-.25,.04-.53,.08-.82,.13-.29,.05-.59,.11-.9,.16-.61,.12-1.25,.26-1.83,.4-.15,.04-.29,.07-.43,.11-.14,.04-.27,.08-.4,.11-.26,.07-.5,.13-.71,.2-.42,.13-.72,.23-.85,.27-.15,.05-.12,.02,.09-.07,.11-.05,.27-.11,.47-.19,.1-.04,.22-.08,.35-.13,.13-.04,.27-.09,.43-.14Z"/><path class="cls-3" d="M1.49,32.41c.16-.07,.34-.15,.52-.23,.19-.08,.38-.16,.58-.25,.4-.18,.84-.34,1.27-.52,.43-.17,.87-.33,1.29-.48,.41-.15,.8-.28,1.14-.4,1.6-.53,2.86-.91,4.5-1.33,.83-.21,1.87-.43,2.92-.62,1.05-.18,2.1-.34,2.95-.42,.08,0,.2-.02,.33-.03,.13-.01,.28-.03,.42-.03,.29-.02,.58-.04,.75-.05,.18-.01,.12,.01-.13,.05-.13,.02-.3,.04-.52,.07-.11,.01-.23,.02-.36,.04-.13,.02-.27,.03-.41,.05-.17,.02-.35,.04-.54,.07-.19,.03-.4,.06-.61,.1-.22,.04-.44,.07-.68,.11-.24,.04-.49,.09-.74,.14-.26,.04-.51,.09-.77,.14-.26,.05-.52,.1-.78,.15-.26,.06-.53,.12-.81,.18-.14,.03-.28,.06-.42,.09-.14,.04-.29,.07-.43,.11-1.54,.38-3.26,.93-4.65,1.39-1.06,.35-2.49,.85-3.71,1.33-.61,.23-1.17,.48-1.61,.66-.43,.2-.75,.34-.88,.4-.16,.07-.13,.04,.09-.08,.23-.12,.65-.36,1.3-.65Z"/><path class="cls-3" d="M5.34,34.47c.49-.29,1.16-.62,1.82-.97,.33-.18,.67-.33,.99-.48,.32-.15,.62-.29,.87-.41,.15-.07,.3-.14,.45-.2,.15-.06,.29-.13,.43-.19,.28-.12,.56-.24,.83-.36,.27-.12,.56-.23,.84-.34,.29-.11,.58-.23,.9-.35,.32-.13,.68-.24,1.06-.38,.38-.13,.78-.27,1.19-.39,.41-.12,.81-.24,1.2-.36,.19-.06,.38-.12,.56-.17,.18-.05,.36-.1,.52-.14,.25-.07,.9-.24,1.16-.3,.27-.08-.17,.13-1.08,.4-.13,.04-.27,.08-.42,.13-.07,.02-.15,.05-.23,.07-.08,.03-.16,.05-.24,.08-.33,.11-.7,.24-1.1,.36-.4,.12-.79,.25-1.2,.39-.2,.07-.41,.14-.63,.21-.21,.07-.44,.15-.66,.24-.3,.12-.6,.24-.91,.36-.31,.12-.62,.24-.92,.38-.3,.13-.61,.27-.9,.4-.29,.13-.58,.25-.84,.38-.4,.19-.88,.41-1.38,.63-.49,.24-1,.48-1.47,.71-.12,.06-.23,.11-.35,.17-.11,.06-.22,.11-.32,.17-.21,.11-.4,.21-.57,.29-.34,.18-.59,.3-.69,.36-.24,.13,.07-.11,1.07-.67Z"/><path class="cls-3" d="M36.98,28.01c-.11-.05-.23-.11-.36-.18-.13-.06-.26-.11-.4-.18-.14-.06-.28-.12-.43-.18-.15-.05-.3-.11-.45-.16-.6-.22-1.22-.39-1.69-.5-.56-.13-1.06-.22-1.56-.28-.25-.04-.51-.05-.77-.08-.26-.03-.53-.03-.82-.04-.29-.02-.62,0-.96,0-.17,0-.35,.02-.53,.03-.18,.01-.36,.01-.54,.04-.36,.04-.72,.08-1.07,.14-.17,.03-.34,.05-.5,.09-.16,.04-.31,.08-.46,.11-.22,.04-.79,.21-1.02,.27-.12,.04-.08,0,.09-.07,.08-.04,.2-.09,.35-.14,.15-.06,.32-.12,.53-.17,.12-.03,.24-.06,.37-.1,.07-.02,.14-.04,.21-.06,.07-.02,.14-.03,.22-.05,.15-.03,.31-.07,.47-.1,.17-.04,.34-.05,.52-.08,.72-.11,1.43-.11,2.26-.11,.54,0,1.12,.04,1.69,.11,.28,.04,.56,.06,.83,.12,.27,.05,.53,.09,.77,.16,.19,.05,.39,.1,.6,.16,.21,.07,.43,.14,.65,.22,.44,.17,.9,.35,1.31,.56,.1,.05,.21,.1,.3,.15,.1,.05,.19,.1,.28,.15,.18,.1,.35,.18,.5,.27,.29,.18,.5,.31,.59,.36,.11,.06,.08,.06-.09,0-.08-.04-.2-.09-.35-.17-.07-.04-.16-.08-.25-.13-.09-.04-.2-.09-.31-.15Z"/><path class="cls-3" d="M37.03,32.13c-.1-.09-.21-.18-.33-.28-.11-.1-.24-.19-.37-.3-.13-.1-.26-.21-.4-.31-.14-.1-.28-.2-.42-.3-.28-.21-.57-.38-.84-.55-.07-.04-.13-.08-.2-.13-.07-.04-.13-.07-.2-.11-.13-.07-.25-.14-.36-.2-.53-.29-1.02-.52-1.51-.72-.24-.11-.49-.19-.75-.28-.25-.1-.52-.17-.8-.26-.28-.1-.61-.16-.95-.25-.09-.02-.17-.04-.26-.06-.09-.02-.18-.03-.27-.05-.09-.02-.18-.04-.27-.05-.09-.02-.18-.04-.27-.05-.37-.05-.73-.11-1.08-.13-.18-.01-.35-.03-.51-.03-.16,0-.32,0-.47,0-.23-.01-.82,.02-1.05,.03-.12,0-.08-.02,.1-.05,.09-.02,.21-.04,.37-.06,.15-.02,.34-.04,.55-.04,.12,0,.25,0,.39,0,.07,0,.14,0,.21,0,.07,0,.15,0,.22,0,.15,0,.32,.01,.49,.02,.17,0,.34,.03,.53,.05,.73,.08,1.43,.25,2.26,.48,.54,.15,1.11,.34,1.66,.56,.27,.11,.55,.22,.8,.35,.26,.13,.51,.24,.74,.38,.18,.1,.37,.21,.57,.33,.2,.13,.4,.27,.61,.41,.21,.15,.41,.31,.62,.46,.05,.04,.1,.08,.15,.12,.05,.04,.1,.08,.15,.12,.1,.08,.19,.16,.29,.24,.09,.08,.19,.16,.28,.24,.09,.08,.17,.16,.25,.24,.16,.16,.32,.29,.45,.42,.26,.27,.45,.46,.53,.54,.1,.09,.07,.09-.08-.03-.08-.06-.18-.15-.32-.27-.07-.06-.14-.13-.23-.21-.09-.07-.18-.15-.28-.24Z"/><path class="cls-3" d="M33.37,32.86c-.29-.25-.7-.52-1.1-.81-.2-.15-.41-.27-.6-.39-.2-.12-.38-.23-.54-.33-.05-.03-.09-.06-.14-.09-.05-.02-.09-.05-.14-.07-.09-.05-.18-.09-.27-.14-.18-.09-.35-.18-.52-.27-.17-.09-.35-.16-.53-.24-.18-.08-.37-.16-.56-.24-.2-.1-.43-.17-.67-.26-.12-.05-.24-.09-.37-.14-.06-.02-.12-.05-.19-.07-.06-.03-.13-.05-.19-.06-.26-.08-.51-.15-.76-.22-.12-.03-.24-.07-.36-.1-.12-.02-.23-.04-.33-.06-.16-.03-.57-.12-.74-.15-.18-.03,.13-.07,.73,.03,.08,.01,.18,.03,.27,.04,.05,0,.1,.01,.15,.02,.05,.01,.1,.02,.16,.03,.22,.05,.45,.1,.71,.17,.13,.04,.26,.06,.38,.11,.13,.05,.25,.1,.38,.14,.13,.05,.26,.1,.4,.15,.14,.05,.28,.09,.42,.16,.19,.08,.38,.16,.58,.24,.2,.08,.4,.15,.59,.26,.19,.1,.38,.19,.57,.29,.18,.09,.37,.18,.53,.29,.25,.16,.54,.34,.84,.54,.29,.22,.59,.45,.87,.67,.07,.05,.14,.1,.2,.16,.06,.06,.13,.11,.19,.17,.12,.11,.23,.2,.33,.29,.19,.17,.34,.3,.4,.35,.14,.12-.09,.01-.69-.47Z"/></g><path class="cls-13" d="M42.51,72.38c-1.39-.17-2.76-.66-4.06-1.2-2.03-.85-4.06-1.84-6.26-1.99-1.61-.11-3.36,.38-4.52,1.45,.68,4.42,2.72,18.7,1.21,21.29-1.79,3.06-4.99,3.05-4.73,5.47,.26,2.43,2.28,3.02,3.99,3.02,4.34,0,6.34-1.21,7.49-3.26,.7-1.25,2.86-10.65,4.88-18.23,.67-2.52,1.43-4.78,1.99-6.54Z"/><path class="cls-1" d="M15.53,69.76c.3,1.52,.53,3.06,.68,4.61,.61,6.06,.2,12.18-.21,18.26-2.43-.05-4.59,2.44-4.19,4.84,1.98,1.04,4.2,1.61,6.43,1.67,1.75,.04,3.66-.36,4.9-1.52,.46-.62,.86-1.31,1.19-2.03,.34-1.32,.15-2.81,.02-4.2-.65-6.94,.77-13.9,2.55-20.65-3.77,.92-7.82,.57-11.38-.98Z"/><path class="cls-14" d="M78.29,89.71c-.57-.13-1.16-.26-1.61-.64-.44-.38,.2-1.08-.14-2.64-.14-.65-1.02-.65-2.15-.41-.48,.88-1.18,1.69-1.86,2.42-1.15,1.25-2.41,2.56-4.07,2.93-1.56,.34-3.37-.19-4.68,.73-1.22,.86-1.4,2.74-.64,4.03,.76,1.29,2.22,2.03,3.69,2.31,2.47,.48,5.06-.16,7.27-1.36,2.21-1.2,4.09-2.92,5.85-4.73,.6-.61,1.18-1.24,1.76-1.88-1.14-.25-2.28-.51-3.42-.76Z"/><path class="cls-15" d="M23.38,93.86c-1.23-.29-2.42-.95-3.67-.81-.94,.1-1.83,.63-2.77,.52-.66-.08-1.22-.47-1.78-.85-2.06,.45-3.7,2.64-3.35,4.76,1.98,1.04,4.2,1.61,6.43,1.67,2.12,.05,4.49-.53,5.6-2.34,.52-.85,.68-1.83,.68-2.83-.39,.02-.78-.01-1.14-.1Z"/><path class="cls-14" d="M103.41,84.22c-.94-.19-1.88-.63-2.81-.39-.84,.22-1.44,.95-1.92,1.67-.48,.72-.94,1.51-1.68,1.96-.21,.13-.45,.22-.7,.26-.45,2.57-1.21,4.8-1.81,4.83-4.21,.21-6.06,3.37-3.42,5.46,1.88,1.48,5.93,1.82,8.66,.51,1.5-.72,3.76-8.88,4.24-14.25-.19,0-.39-.02-.57-.06Z"/><path class="cls-14" d="M26.66,94.26c-1.4,1.01-2.66,1.56-2.5,3.12,.26,2.43,2.28,3.02,3.99,3.02,4.34,0,6.34-1.21,7.49-3.26,.26-.46,.71-2.01,1.28-4.17-3.67-.46-7.3,3.15-10.26,1.28Z"/></g></g></svg>