<?xml version="1.0" encoding="UTF-8"?><svg id="Capa_1" xmlns="http://www.w3.org/2000/svg" viewBox="0 0 123.6 118.3"><defs><style>.cls-1{fill:#1d1d1b;stroke:#1d1d1b;stroke-miterlimit:10;stroke-width:3px;}.cls-2{fill:#1e1e1c;}</style></defs><path class="cls-1" d="M1.5,61.9c0-17.6,14.9-29.3,30.7-29.3,13.9,0,23.8,12.1,23.8,12.1,.6-13.2,9.6-26.6,24.6-26.6,11.5,0,22,7.9,22,26.8,0,33-29.2,66.5-38.5,71.6,0,0-.6,.3-1.1,.3-.8,0-1.4-.6-1.4-1.2,0-.8,1.1-1.5,1.1-1.5,9-5,37.1-37.3,37.1-69.1,0-17-9.3-24.1-19.2-24.1-14.2,0-22,13.3-22,26,0,0-.1,2.4-2.1,2.4-1.2,0-2.1-1.7-2.1-1.7,0,0-9.6-12.1-22.2-12.1-14.5,0-27.5,10.2-27.5,26.6,0,27.8,41.5,38.9,57.2,37.7,0,0,1.7-.1,1.7,1.2,0,1.2-1.4,1.5-1.4,1.5C44.3,103.9,1.5,91.7,1.5,61.9Z"/><path class="cls-2" d="M123.6,11.6h0c-6.4,0-11.6,5.2-11.6,11.6h0c0-6.4-5.2-11.6-11.6-11.6h0c6.4,0,11.6-5.2,11.6-11.6h0c0,6.4,5.2,11.6,11.6,11.6Z"/></svg>